<svg xmlns="http://www.w3.org/2000/svg" xmlns:xlink="http://www.w3.org/1999/xlink" width="25" height="25" viewBox="0 0 25 25">
  <defs>
    <clipPath id="clip-moon">
      <rect width="25" height="25"/>
    </clipPath>
  </defs>
  <g id="moon" clip-path="url(#clip-moon)">
    <circle id="Ellipse_1" data-name="Ellipse 1" cx="12.5" cy="12.5" r="12.5" fill="#fff"/>
    <g id="moon-stars-fill" transform="translate(5 4.5)">
      <path id="Path_1" data-name="Path 1" d="M5.407.251a.692.692,0,0,1,.072.773,6.5,6.5,0,0,0-.791,3.118A6.576,6.576,0,0,0,11.282,10.7a6.627,6.627,0,0,0,1.381-.144.709.709,0,0,1,.73.285.661.661,0,0,1-.028.8A7.5,7.5,0,1,1,4.617.054a.678.678,0,0,1,.789.2Z" transform="translate(1 0.5)" fill="#ba0000"/>
    </g>
  </g>
</svg>
