<svg xmlns="http://www.w3.org/2000/svg" width="165.694" height="41.914" viewBox="0 0 165.694 41.914">
  <g id="DMLFINAL2_Logo" data-name="DMLFINAL2 Logo" transform="translate(-35.2)">
    <path id="Path_1" data-name="Path 1" d="M69.594,130.527a5.281,5.281,0,1,1-5.281,5.281,5.105,5.105,0,0,1,.191-1.4l-5.2-5.2h6.288l1.8,1.8a5.265,5.265,0,0,1,2.207-.472m4.656,6.48a22.638,22.638,0,0,1-2.73,3.176,4.469,4.469,0,0,0,2.73-3.176m-11.289-7a.689.689,0,1,0,.689.689.7.7,0,0,0-.689-.689m2.564.778a.612.612,0,1,0,.612.612.612.612,0,0,0-.612-.612m.778,2.181a.816.816,0,1,0,.816.816.822.822,0,0,0-.816-.816m3.635-.485a1.122,1.122,0,1,0,1.122,1.122,1.124,1.124,0,0,0-1.122-1.122" transform="translate(-21.026 -112.72)" fill="#0f2"/>
    <path id="Path_2" data-name="Path 2" d="M65.042,2.1V15.2a11.89,11.89,0,0,0-6.977-2.245,12.016,12.016,0,0,0-6.008,1.607l3.763,3.763a6.849,6.849,0,0,1,2.245-.37A6.964,6.964,0,1,1,51.1,24.919a6.782,6.782,0,0,1,.14-1.365l-3.916-3.916A11.822,11.822,0,0,0,46.1,24.919a11.965,11.965,0,1,0,23.929,0V2.1Z" transform="translate(-9.51 -1.832)" fill="#fff"/>
    <path id="Path_3" data-name="Path 3" d="M58.337,77.875A1.237,1.237,0,1,0,57.1,76.637a1.238,1.238,0,0,0,1.237,1.237" transform="translate(-19.107 -65.782)" fill="#0f2"/>
    <path id="Path_4" data-name="Path 4" d="M52.137,102.875a1.237,1.237,0,1,0-1.237-1.237,1.238,1.238,0,0,0,1.237,1.237" transform="translate(-13.697 -87.594)" fill="#0f2"/>
    <path id="Path_5" data-name="Path 5" d="M36.067,86.035a.867.867,0,1,0-.867-.867.868.868,0,0,0,.867.867" transform="translate(0 -73.547)" fill="#0f2"/>
    <path id="Path_6" data-name="Path 6" d="M78.365,111.231a.765.765,0,1,0-.765-.765.759.759,0,0,0,.765.765" transform="translate(-36.992 -95.707)" fill="#0f2"/>
    <path id="Path_7" data-name="Path 7" d="M159.189,2.1V25.277A13.292,13.292,0,0,1,146,38.67v5.077a18.333,18.333,0,0,0,18.189-18.47V2.1Z" transform="translate(-96.667 -1.832)" fill="#fff"/>
    <path id="Path_8" data-name="Path 8" d="M1242.347,51.577a11.608,11.608,0,0,0-1.9-.077h-.893L1237.5,60h.842c1.556,0,2.22-.089,2.781-.561s.689-1.033.982-2.27l.038-.179c.038-.2.1-.421.153-.638s.1-.408.153-.612l.472-2.015.064-.332a4.351,4.351,0,0,0,.14-.867,1.023,1.023,0,0,0-.778-.944" transform="translate(-1048.942 -44.931)" fill="#0f2"/>
    <path id="Path_9" data-name="Path 9" d="M1108.591,93.683l1.62-12.883L1105.3,93.683Z" transform="translate(-933.604 -70.494)" fill="#0f2"/>
    <path id="Path_10" data-name="Path 10" d="M1216.021,147.4h-1.2l-2.322,9.8h.893c1.7,0,2.258-.026,2.832-.7a5.934,5.934,0,0,0,.957-2.6l.013-.038c.064-.281.14-.6.229-.944l.472-2,.051-.2a10.006,10.006,0,0,0,.332-2.079,1.071,1.071,0,0,0-.2-.753c-.357-.472-.816-.472-2.054-.472" transform="translate(-1027.13 -128.599)" fill="#0f2"/>
    <path id="Path_11" data-name="Path 11" d="M421.186,30.626l1.518-6.174.51-2.143a11.887,11.887,0,0,0,.421-2.73,6.405,6.405,0,0,0-.383-1.99,5.57,5.57,0,0,0,.893-1.135l.038-.077a11.528,11.528,0,0,0,.969-2.755l.957-4.056.051-.268a14.606,14.606,0,0,0,.434-2.857A5.7,5.7,0,0,0,422.232.7a10.7,10.7,0,0,0-3.125-.319h-8.138l-2.717,11.4,1.2-11.4h-9.375L389.323,26.416h-3.737L391.721.383h-9.107l-.689,2.934A6.707,6.707,0,0,0,377.678.293,10.461,10.461,0,0,0,375.1,0a8.629,8.629,0,0,0-5.957,2.168l.434-1.786H360.8l-.727,3.291L360.011.383H338.34L337,3.01,336.873.383H314.245L311.617,7.22l.574-6.837h-9.72L293.9,34.912h35.141l1.76-3.533.14,3.533h21.3l.383-1.837.026,1.837h8.533L362.154,31a7.5,7.5,0,0,0,6.684,4.337,6.718,6.718,0,0,0,2.4-.421h23.9l2.232-5.574h.281l-.727,5.574h16.914a8.622,8.622,0,0,0,4.936-1.122,5.2,5.2,0,0,0,2.411-3.163M314.628,32.692h-4.273l4.783-20.154L307.51,32.692h-3.686l1.952-20.281-4.809,20.281h-4.273l7.475-30.1h5.6l-1.62,19.822,7.6-19.822h5.791Zm1.99,0,7.13-30.1h4.579l-7.169,30.1Zm16.429,0-.4-10.013-5,10.013H322.8l8.686-15.944L330.266,2.589h4.477l.434,8.827,4.49-8.827h4.771l-7.959,14.567,1.084,15.536Zm10.587,0h-4.528l7.13-30.1H350.8Zm15.8,0H354.82l-.306-19.771-4.082,19.771H346.07l7.13-30.1h4.617l.344,19.86,4.388-19.86h4.2Zm15.6,0h-2.959l.026-.957a4.381,4.381,0,0,1-3.3,1.378,4.964,4.964,0,0,1-1.684-.306,4.76,4.76,0,0,1-3.367-4.745,23.053,23.053,0,0,1,.957-5.676l2.7-11.135c.829-3.444,1.339-5.115,2.411-6.582a6.149,6.149,0,0,1,5.255-2.462,8.553,8.553,0,0,1,2.041.217A4.25,4.25,0,0,1,380.6,6.8a15.1,15.1,0,0,1-.548,3.291l-.013.064c-.064.293-.14.6-.217.931l-.306,1.352h-4.273l.6-2.551.051-.191a12.665,12.665,0,0,0,.459-2.385,1.422,1.422,0,0,0-1.429-1.48,2.187,2.187,0,0,0-1.454.855,20.787,20.787,0,0,0-1.314,4.248l-3.406,13.852a10.5,10.5,0,0,0-.51,2.819,1.436,1.436,0,0,0,1.518,1.645,1.667,1.667,0,0,0,1.071-.357c.638-.485.867-1.492,1.212-3.01l.1-.434,1.161-4.975h-2.487l.944-3.98h7.156Zm2.168,0,7.13-30.1H388.9l-6.135,26.047h6.646L388.124,32.7H377.206Zm22.207,0,.727-5.574h-4.3l-2.232,5.574h-4.515l12.424-30.1h5.447l-3.151,30.1Zm14.4,0h-8.3l7.169-30.1h6.39a8.551,8.551,0,0,1,2.5.23A3.508,3.508,0,0,1,424.35,6.39a12.079,12.079,0,0,1-.383,2.424l-.051.268-.944,4.018a10.254,10.254,0,0,1-.753,2.207,3.6,3.6,0,0,1-2.411,1.671,2.2,2.2,0,0,1,1.212,1.059,4.413,4.413,0,0,1,.37,1.543,10.431,10.431,0,0,1-.357,2.232l-.077.344-.816,3.431c-.23,1.02-.485,2.015-.778,2.985a7.155,7.155,0,0,1-1.161,2.6c-1.186,1.518-2.883,1.518-4.388,1.518" transform="translate(-225.702)" fill="#0f2"/>
  </g>
</svg>
