<svg xmlns="http://www.w3.org/2000/svg" width="163.403" height="41.334" viewBox="0 0 163.403 41.334">
  <g id="DMLFINAL2_Logo" data-name="DMLFINAL2 Logo" transform="translate(-35.2)">
    <path id="Path_24" data-name="Path 24" d="M69.451,130.508a5.208,5.208,0,1,1-5.208,5.208,5.035,5.035,0,0,1,.189-1.384L59.3,129.2h6.2l1.774,1.774a5.192,5.192,0,0,1,2.176-.465m4.591,6.39a22.324,22.324,0,0,1-2.692,3.132,4.407,4.407,0,0,0,2.692-3.132M62.91,129.992a.679.679,0,1,0,.679.679.693.693,0,0,0-.679-.679m2.528.767a.6.6,0,1,0,.6.6.6.6,0,0,0-.6-.6m.767,2.151a.805.805,0,1,0,.805.805.811.811,0,0,0-.805-.805m3.585-.478A1.107,1.107,0,1,0,70.9,133.54a1.109,1.109,0,0,0-1.107-1.107" transform="translate(-21.068 -112.948)" fill="#b7b7b7"/>
    <path id="Path_25" data-name="Path 25" d="M64.78,2.1V15.019A11.726,11.726,0,0,0,57.9,12.8a11.85,11.85,0,0,0-5.925,1.585L55.685,18.1a6.754,6.754,0,0,1,2.214-.365A6.868,6.868,0,1,1,51.031,24.6a6.689,6.689,0,0,1,.138-1.346L47.308,19.4A11.658,11.658,0,0,0,46.1,24.6a11.8,11.8,0,1,0,23.6,0V2.1Z" transform="translate(-9.529 -1.836)" fill="#b7b7b7"/>
    <path id="Path_26" data-name="Path 26" d="M58.32,77.84a1.22,1.22,0,1,0-1.22-1.22,1.221,1.221,0,0,0,1.22,1.22" transform="translate(-19.145 -65.915)" fill="#b7b7b7"/>
    <path id="Path_27" data-name="Path 27" d="M52.12,102.84a1.22,1.22,0,1,0-1.22-1.22,1.221,1.221,0,0,0,1.22,1.22" transform="translate(-13.725 -87.771)" fill="#b7b7b7"/>
    <path id="Path_28" data-name="Path 28" d="M36.055,86.011a.855.855,0,1,0-.855-.855.856.856,0,0,0,.855.855" transform="translate(0 -73.696)" fill="#b7b7b7"/>
    <path id="Path_29" data-name="Path 29" d="M78.355,111.209a.755.755,0,1,0-.755-.755.749.749,0,0,0,.755.755" transform="translate(-37.066 -95.901)" fill="#b7b7b7"/>
    <path id="Path_30" data-name="Path 30" d="M159.007,2.1V24.956A13.108,13.108,0,0,1,146,38.164v5.006a18.08,18.08,0,0,0,17.938-18.214V2.1Z" transform="translate(-96.862 -1.836)" fill="#b7b7b7"/>
    <path id="Path_31" data-name="Path 31" d="M1242.28,51.575a11.446,11.446,0,0,0-1.874-.075h-.88l-2.025,8.378h.83c1.535,0,2.189-.088,2.742-.553s.679-1.019.969-2.239l.038-.176c.038-.2.1-.415.151-.629s.1-.4.151-.6l.465-1.987.063-.327a4.278,4.278,0,0,0,.138-.855,1.008,1.008,0,0,0-.767-.931" transform="translate(-1051.062 -45.022)" fill="#b7b7b7"/>
    <path id="Path_32" data-name="Path 32" d="M1108.546,93.5l1.6-12.7L1105.3,93.5Z" transform="translate(-935.492 -70.636)" fill="#b7b7b7"/>
    <path id="Path_33" data-name="Path 33" d="M1215.972,147.4h-1.182l-2.289,9.661h.88c1.673,0,2.227-.025,2.793-.692a5.856,5.856,0,0,0,.943-2.566l.013-.038c.063-.277.138-.591.226-.931l.465-1.975.05-.2a9.868,9.868,0,0,0,.327-2.05,1.057,1.057,0,0,0-.2-.742c-.352-.465-.805-.465-2.025-.465" transform="translate(-1029.207 -128.859)" fill="#b7b7b7"/>
    <path id="Path_34" data-name="Path 34" d="M419.426,30.2l1.5-6.088.5-2.113a11.72,11.72,0,0,0,.415-2.692,6.317,6.317,0,0,0-.377-1.962,5.493,5.493,0,0,0,.881-1.12l.038-.075a11.367,11.367,0,0,0,.956-2.717l.943-4,.05-.264a14.4,14.4,0,0,0,.428-2.818,5.62,5.62,0,0,0-4.3-5.661,10.555,10.555,0,0,0-3.082-.314H409.35l-2.679,11.246L407.853.377h-9.246L388,26.051h-3.686L390.369.377h-8.981l-.679,2.893A6.614,6.614,0,0,0,376.519.289,10.316,10.316,0,0,0,373.978,0,8.51,8.51,0,0,0,368.1,2.138l.428-1.761h-8.654l-.717,3.245L359.1.377H337.725L336.4,2.969,336.279.377H313.964L311.372,7.12l.566-6.742h-9.585L293.9,34.429h34.655l1.736-3.484.138,3.484h21.007l.377-1.811.025,1.811h8.415l.956-3.862a7.4,7.4,0,0,0,6.591,4.277,6.625,6.625,0,0,0,2.365-.415H393.74l2.2-5.5h.277l-.717,5.5h16.68a8.5,8.5,0,0,0,4.868-1.107,5.127,5.127,0,0,0,2.377-3.12M314.341,32.24h-4.214l4.717-19.875L307.322,32.24h-3.635l1.925-20-4.742,20h-4.214l7.371-29.687h5.522l-1.6,19.548,7.5-19.548h5.711Zm1.962,0,7.032-29.687h4.516L320.781,32.24Zm16.2,0-.39-9.875-4.931,9.875H322.4l8.566-15.724L329.763,2.554h4.415l.428,8.7,4.428-8.7h4.7l-7.849,14.365,1.069,15.321Zm10.441,0H338.48l7.032-29.687h4.5Zm15.585,0h-4.554l-.3-19.5-4.025,19.5h-4.3L352.38,2.554h4.554l.34,19.586L361.6,2.554h4.138Zm15.384,0H371l.025-.943a4.321,4.321,0,0,1-3.258,1.359,4.894,4.894,0,0,1-1.66-.3,4.7,4.7,0,0,1-3.321-4.679,22.73,22.73,0,0,1,.943-5.6l2.667-10.981c.818-3.4,1.321-5.044,2.377-6.491a6.064,6.064,0,0,1,5.183-2.428,8.435,8.435,0,0,1,2.013.214A4.192,4.192,0,0,1,379.4,6.7a14.9,14.9,0,0,1-.541,3.245l-.013.063c-.063.289-.138.591-.214.918l-.3,1.333h-4.214l.591-2.516.05-.189a12.49,12.49,0,0,0,.453-2.352A1.4,1.4,0,0,0,373.8,5.749a2.157,2.157,0,0,0-1.434.843,20.5,20.5,0,0,0-1.3,4.189l-3.359,13.661a10.347,10.347,0,0,0-.5,2.78,1.416,1.416,0,0,0,1.5,1.623,1.644,1.644,0,0,0,1.057-.352c.629-.478.855-1.472,1.2-2.969l.1-.428,1.145-4.906h-2.453l.931-3.925h7.057Zm2.138,0,7.032-29.687h4.5l-6.05,25.686h6.554l-1.27,4.013H376.054Zm21.9,0,.717-5.5h-4.239l-2.2,5.5h-4.453L400.029,2.554H405.4L402.293,32.24Zm14.2,0h-8.189l7.069-29.687h6.3a8.433,8.433,0,0,1,2.465.226A3.46,3.46,0,0,1,422.546,6.3a11.912,11.912,0,0,1-.377,2.39l-.05.264-.931,3.962a10.114,10.114,0,0,1-.742,2.176,3.546,3.546,0,0,1-2.377,1.648,2.167,2.167,0,0,1,1.2,1.044,4.352,4.352,0,0,1,.365,1.522,10.29,10.29,0,0,1-.352,2.2l-.076.34-.805,3.384c-.226,1.006-.478,1.987-.767,2.943a7.056,7.056,0,0,1-1.145,2.566c-1.17,1.5-2.843,1.5-4.327,1.5" transform="translate(-226.158)" fill="#b7b7b7"/>
  </g>
</svg>
