<svg version="1.2" baseProfile="tiny-ps" xmlns="http://www.w3.org/2000/svg" viewBox="0 0 166 42" width="166" height="42">
	<title>header_logo-svg</title>
	<style>
		tspan { white-space:pre }
		.shp0 { fill: #00ff22 } 
	</style>
	<g id="DMLFINAL2_Logo">
		<path id="Path_1" fill-rule="evenodd" class="shp0" d="M13.37 17.81C15.5 17.81 17.43 19.09 18.25 21.07C19.06 23.04 18.61 25.31 17.1 26.82C15.59 28.33 13.32 28.78 11.35 27.97C9.37 27.15 8.09 25.22 8.09 23.09C8.09 22.97 8.09 22.85 8.1 22.73C8.11 22.62 8.12 22.5 8.13 22.38C8.15 22.26 8.17 22.15 8.19 22.03C8.22 21.92 8.25 21.8 8.28 21.69L3.08 16.49L9.37 16.49L11.17 18.29C11.34 18.21 11.52 18.14 11.7 18.08C11.88 18.02 12.06 17.97 12.24 17.93C12.43 17.89 12.62 17.86 12.81 17.84C12.99 17.82 13.18 17.81 13.37 17.82M17.4 25.14C17.19 25.41 16.97 25.68 16.74 25.95C16.51 26.21 16.28 26.47 16.04 26.73C15.8 26.98 15.55 27.23 15.3 27.47C15.64 27.34 15.96 27.17 16.26 26.96C16.55 26.75 16.82 26.5 17.06 26.22C17.3 25.95 17.5 25.64 17.66 25.32C17.83 24.99 17.95 24.65 18.03 24.3C17.83 24.58 17.62 24.86 17.4 25.14ZM6.74 17.3C6.46 17.3 6.21 17.46 6.1 17.72C6 17.98 6.06 18.28 6.25 18.47C6.45 18.67 6.75 18.73 7 18.62C7.26 18.51 7.43 18.26 7.43 17.99C7.43 17.89 7.41 17.81 7.37 17.72C7.34 17.64 7.29 17.56 7.22 17.5C7.16 17.44 7.08 17.39 7 17.35C6.92 17.32 6.83 17.3 6.74 17.3ZM8.74 18.45C8.64 18.68 8.7 18.94 8.87 19.12C9.05 19.29 9.31 19.35 9.54 19.25C9.77 19.16 9.92 18.93 9.92 18.69C9.92 18.61 9.9 18.53 9.87 18.45C9.84 18.38 9.79 18.31 9.74 18.25C9.68 18.2 9.61 18.15 9.54 18.12C9.46 18.09 9.38 18.07 9.3 18.07C9.06 18.07 8.83 18.22 8.74 18.45ZM9.33 20.76C9.2 21.06 9.27 21.41 9.51 21.65C9.74 21.88 10.09 21.95 10.39 21.82C10.7 21.7 10.9 21.4 10.9 21.07C10.9 20.96 10.88 20.86 10.83 20.76C10.79 20.66 10.73 20.57 10.66 20.5C10.58 20.42 10.49 20.36 10.39 20.32C10.29 20.28 10.19 20.26 10.08 20.25C9.75 20.25 9.45 20.45 9.33 20.76ZM12.68 20.46C12.51 20.88 12.6 21.36 12.92 21.69C13.24 22.01 13.73 22.1 14.15 21.93C14.57 21.75 14.84 21.35 14.84 20.89C14.84 20.74 14.81 20.6 14.75 20.46C14.7 20.33 14.61 20.2 14.51 20.1C14.41 20 14.28 19.91 14.15 19.86C14.01 19.8 13.86 19.77 13.72 19.77C13.26 19.77 12.85 20.04 12.68 20.46Z" />
		<path id="Path_2" class="shp0" d="M25.32 0.27L25.32 23.09C25.35 26.28 24.1 29.35 21.85 31.62C19.61 33.89 16.55 35.16 13.35 35.16C10.16 35.16 7.1 33.89 4.86 31.62C2.61 29.35 1.36 26.28 1.39 23.09C1.39 22.63 1.41 22.18 1.46 21.72C1.52 21.27 1.59 20.82 1.7 20.38C1.8 19.93 1.93 19.49 2.08 19.06C2.23 18.63 2.41 18.21 2.61 17.81L6.53 21.72C6.51 21.83 6.49 21.95 6.47 22.06C6.45 22.17 6.44 22.29 6.43 22.4C6.41 22.51 6.4 22.63 6.4 22.74C6.39 22.86 6.39 22.97 6.39 23.09C6.39 25.9 8.09 28.44 10.69 29.52C13.29 30.6 16.29 30 18.28 28.01C20.27 26.02 20.87 23.02 19.79 20.42C18.71 17.82 16.17 16.12 13.35 16.12C13.16 16.12 12.97 16.13 12.78 16.14C12.59 16.16 12.41 16.18 12.22 16.21C12.03 16.25 11.84 16.28 11.66 16.33C11.47 16.38 11.29 16.43 11.11 16.49L7.35 12.73C7.8 12.47 8.27 12.24 8.76 12.04C9.24 11.84 9.74 11.67 10.25 11.53C10.75 11.4 11.27 11.29 11.79 11.23C12.31 11.16 12.83 11.12 13.36 11.12C13.98 11.12 14.6 11.17 15.21 11.26C15.82 11.36 16.43 11.5 17.02 11.69C17.61 11.88 18.19 12.12 18.74 12.4C19.3 12.68 19.83 13 20.33 13.37L20.33 0.27L25.32 0.27Z" />
		<path id="Path_3" class="shp0" d="M4.03 12.09C3.87 12.09 3.71 12.06 3.56 12C3.41 11.94 3.27 11.84 3.16 11.73C3.04 11.61 2.95 11.48 2.89 11.33C2.83 11.18 2.79 11.02 2.79 10.86C2.79 10.35 3.1 9.9 3.56 9.71C4.02 9.52 4.55 9.63 4.91 9.98C5.26 10.34 5.36 10.87 5.17 11.33C4.98 11.79 4.53 12.09 4.03 12.09" />
		<path id="Path_4" class="shp0" d="M3.24 15.28C3.08 15.28 2.92 15.25 2.77 15.19C2.62 15.12 2.48 15.03 2.37 14.92C2.25 14.8 2.16 14.67 2.1 14.52C2.04 14.37 2 14.21 2 14.04C2 13.54 2.3 13.09 2.77 12.9C3.23 12.71 3.76 12.82 4.11 13.17C4.47 13.52 4.57 14.06 4.38 14.52C4.19 14.98 3.74 15.28 3.24 15.28" />
		<path id="Path_5" class="shp0" d="M0.87 12.49C0.75 12.49 0.64 12.47 0.54 12.42C0.43 12.38 0.33 12.31 0.25 12.23C0.17 12.15 0.11 12.06 0.07 11.95C0.02 11.85 0 11.73 0 11.62C0 11.27 0.21 10.95 0.54 10.82C0.86 10.69 1.23 10.76 1.48 11.01C1.73 11.26 1.8 11.63 1.67 11.95C1.53 12.28 1.22 12.49 0.87 12.49" />
		<path id="Path_6" class="shp0" d="M6.17 15.52C6.07 15.52 5.97 15.51 5.88 15.47C5.79 15.43 5.7 15.37 5.63 15.3C5.56 15.23 5.5 15.15 5.46 15.05C5.43 14.96 5.41 14.86 5.41 14.76C5.41 14.45 5.59 14.17 5.88 14.05C6.17 13.93 6.5 14 6.71 14.22C6.93 14.44 7 14.77 6.88 15.05C6.76 15.34 6.48 15.52 6.17 15.52" />
		<path id="Path_7" class="shp0" d="M32.32 0.27L32.32 23.45C32.34 25.85 31.88 28.24 30.98 30.47C30.08 32.7 28.74 34.73 27.05 36.45C25.36 38.16 23.35 39.53 21.14 40.47C18.92 41.4 16.54 41.9 14.13 41.91L14.13 36.84C15.88 36.82 17.6 36.47 19.21 35.79C20.82 35.11 22.28 34.12 23.5 32.87C24.73 31.63 25.69 30.16 26.35 28.54C27 26.92 27.34 25.19 27.32 23.45L27.32 0.27L32.32 0.27Z" />
		<path id="Path_8" class="shp0" d="M158.21 6.65C158.31 6.68 158.41 6.72 158.51 6.78C158.6 6.84 158.68 6.91 158.75 6.99C158.82 7.08 158.88 7.17 158.92 7.28C158.95 7.38 158.98 7.49 158.98 7.59C158.98 7.67 158.97 7.74 158.96 7.81C158.96 7.89 158.95 7.96 158.93 8.03C158.92 8.1 158.91 8.18 158.89 8.25C158.88 8.32 158.86 8.39 158.84 8.46L158.78 8.79L158.31 10.81C158.25 11.01 158.21 11.2 158.15 11.42C158.1 11.64 158.04 11.86 158 12.06L157.96 12.24C157.67 13.48 157.54 14.04 156.98 14.51C156.42 14.98 155.76 15.07 154.2 15.07L153.36 15.07L155.41 6.57L156.3 6.57C156.46 6.56 156.62 6.56 156.78 6.56C156.94 6.56 157.1 6.56 157.26 6.57C157.42 6.57 157.57 6.58 157.73 6.6C157.89 6.61 158.05 6.63 158.2 6.65" />
		<path id="Path_9" class="shp0" d="M136.5 23.19L141.41 10.31L139.79 23.19L136.5 23.19Z" />
		<path id="Path_10" class="shp0" d="M153.69 18.82C154.93 18.82 155.39 18.82 155.75 19.29C155.79 19.34 155.82 19.4 155.85 19.46C155.88 19.52 155.9 19.58 155.92 19.64C155.94 19.71 155.95 19.77 155.95 19.84C155.96 19.91 155.96 19.97 155.95 20.04C155.94 20.22 155.92 20.39 155.91 20.57C155.89 20.74 155.86 20.91 155.84 21.09C155.81 21.26 155.78 21.43 155.74 21.61C155.7 21.78 155.66 21.95 155.62 22.12L155.57 22.32L155.09 24.32C155 24.66 154.93 24.98 154.86 25.26L154.85 25.3C154.82 25.53 154.78 25.76 154.73 25.99C154.67 26.22 154.61 26.44 154.53 26.66C154.45 26.88 154.35 27.09 154.25 27.3C154.14 27.51 154.02 27.71 153.89 27.9C153.32 28.58 152.76 28.6 151.06 28.6L150.17 28.6L152.49 18.8L153.69 18.8" />
		<path id="Path_11" fill-rule="evenodd" class="shp0" d="M160.28 30.65C160.19 30.98 160.07 31.3 159.92 31.61C159.77 31.91 159.59 32.2 159.39 32.48C159.18 32.75 158.95 33 158.69 33.22C158.44 33.45 158.16 33.65 157.87 33.82C157.49 34.03 157.11 34.22 156.71 34.37C156.31 34.53 155.9 34.65 155.48 34.75C155.06 34.84 154.64 34.91 154.21 34.94C153.79 34.97 153.36 34.97 152.93 34.94L136.02 34.93L136.74 29.36L136.46 29.36L134.23 34.93L110.33 34.92C110.14 34.99 109.94 35.05 109.75 35.11C109.55 35.16 109.35 35.2 109.15 35.24C108.95 35.28 108.74 35.3 108.54 35.32C108.34 35.33 108.13 35.34 107.93 35.34C107.23 35.33 106.53 35.22 105.86 35.02C105.19 34.81 104.55 34.51 103.96 34.13C103.38 33.75 102.84 33.29 102.38 32.76C101.93 32.23 101.54 31.64 101.25 31L100.27 34.91L91.74 34.91L91.72 33.07L91.33 34.91L70.03 34.9L69.89 31.37L68.13 34.9L32.99 34.89L41.58 0.36L51.3 0.36L50.72 7.2L53.35 0.37L75.98 0.37L76.1 3L77.44 0.37L99.12 0.38L99.18 3.67L99.9 0.38L108.68 0.39L108.25 2.17C108.65 1.81 109.09 1.49 109.56 1.22C110.02 0.94 110.51 0.71 111.02 0.52C111.53 0.34 112.05 0.2 112.59 0.11C113.12 0.03 113.66 -0.01 114.2 0.01C114.42 0 114.64 0.01 114.85 0.02C115.07 0.03 115.29 0.05 115.5 0.07C115.72 0.1 115.93 0.13 116.15 0.17C116.36 0.2 116.57 0.25 116.78 0.3C117.22 0.4 117.64 0.54 118.05 0.72C118.46 0.9 118.85 1.12 119.21 1.38C119.58 1.64 119.91 1.94 120.22 2.26C120.52 2.59 120.79 2.95 121.03 3.33L121.72 0.39L130.83 0.4L124.68 26.43L128.42 26.43L139.18 0.4L148.56 0.4L147.35 11.8L150.07 0.4L158.21 0.4C158.47 0.39 158.74 0.39 159 0.4C159.26 0.4 159.52 0.42 159.79 0.45C160.05 0.48 160.31 0.51 160.57 0.56C160.83 0.6 161.08 0.66 161.34 0.72C161.97 0.88 162.57 1.14 163.12 1.49C163.67 1.85 164.15 2.3 164.54 2.82C164.93 3.34 165.24 3.92 165.43 4.54C165.63 5.16 165.72 5.82 165.7 6.47C165.68 6.71 165.67 6.95 165.64 7.19C165.62 7.43 165.59 7.67 165.55 7.91C165.51 8.14 165.47 8.38 165.42 8.62C165.37 8.85 165.32 9.09 165.26 9.32L165.21 9.59L164.25 13.65C164.2 13.89 164.14 14.12 164.08 14.36C164.01 14.59 163.94 14.83 163.85 15.06C163.77 15.29 163.68 15.51 163.59 15.74C163.49 15.96 163.39 16.18 163.28 16.4L163.24 16.48C163.18 16.58 163.12 16.68 163.05 16.78C162.98 16.88 162.91 16.98 162.83 17.08C162.76 17.17 162.68 17.26 162.6 17.35C162.52 17.44 162.44 17.53 162.35 17.61C162.41 17.77 162.46 17.93 162.5 18.1C162.55 18.26 162.59 18.43 162.62 18.59C162.65 18.76 162.68 18.93 162.7 19.1C162.72 19.26 162.73 19.43 162.73 19.6C162.72 19.83 162.71 20.06 162.69 20.29C162.66 20.52 162.64 20.75 162.6 20.98C162.57 21.21 162.52 21.44 162.48 21.66C162.43 21.89 162.37 22.11 162.31 22.33L161.8 24.48L160.28 30.65M60.64 2.58L54.85 2.57L47.25 22.39L48.87 2.57L43.27 2.57L35.79 32.67L40.06 32.67L44.88 12.39L42.92 32.67L46.6 32.67L54.24 12.52L49.45 32.67L53.72 32.67L60.64 2.58ZM60.25 32.68L67.43 2.58L62.85 2.58L55.71 32.68L60.25 32.68ZM76.66 32.68L75.58 17.15L83.54 2.58L78.77 2.58L74.28 11.41L73.85 2.58L69.37 2.58L70.58 16.74L61.89 32.68L66.74 32.68L71.74 22.67L72.14 32.68L76.66 32.68ZM89.9 2.59L85.34 2.59L78.2 32.68L82.73 32.69L89.9 2.59ZM105.85 2.59L101.65 2.59L97.26 22.45L96.92 2.59L92.3 2.59L85.16 32.69L89.52 32.69L93.61 12.92L93.91 32.69L98.53 32.69L105.85 2.59ZM118.01 16.5L110.86 16.5L109.91 20.48L112.4 20.48L111.24 25.45L111.14 25.89C110.79 27.41 110.56 28.41 109.92 28.9C109.85 28.96 109.77 29.01 109.68 29.05C109.6 29.1 109.51 29.14 109.42 29.17C109.33 29.2 109.23 29.22 109.14 29.24C109.04 29.25 108.95 29.26 108.85 29.25C108.64 29.27 108.42 29.23 108.22 29.16C108.02 29.08 107.84 28.95 107.7 28.79C107.55 28.64 107.44 28.45 107.38 28.24C107.32 28.04 107.3 27.82 107.33 27.61C107.34 27.37 107.36 27.13 107.39 26.89C107.42 26.65 107.45 26.42 107.49 26.18C107.54 25.95 107.59 25.71 107.65 25.48C107.7 25.25 107.77 25.02 107.85 24.79L111.26 10.94C111.33 10.57 111.41 10.21 111.5 9.85C111.59 9.49 111.69 9.13 111.8 8.78C111.91 8.42 112.03 8.07 112.16 7.73C112.29 7.38 112.43 7.03 112.57 6.69C112.66 6.58 112.76 6.47 112.86 6.37C112.97 6.28 113.09 6.19 113.21 6.12C113.34 6.04 113.47 5.98 113.61 5.94C113.74 5.89 113.88 5.86 114.03 5.84C114.22 5.84 114.41 5.87 114.59 5.95C114.76 6.02 114.92 6.13 115.06 6.27C115.19 6.41 115.3 6.57 115.36 6.75C115.43 6.93 115.46 7.13 115.46 7.32C115.44 7.52 115.41 7.72 115.38 7.92C115.35 8.12 115.32 8.32 115.28 8.52C115.24 8.72 115.2 8.92 115.15 9.11C115.11 9.31 115.05 9.51 115 9.7L114.94 9.89L114.34 12.44L118.62 12.45L118.92 11.09C119 10.76 119.08 10.46 119.14 10.16L119.15 10.1C119.23 9.83 119.3 9.56 119.36 9.29C119.42 9.02 119.47 8.74 119.52 8.47C119.56 8.19 119.6 7.92 119.63 7.64C119.66 7.36 119.69 7.09 119.7 6.81C119.73 6.3 119.66 5.79 119.5 5.3C119.34 4.82 119.1 4.36 118.78 3.97C118.46 3.57 118.08 3.23 117.64 2.97C117.2 2.7 116.72 2.52 116.22 2.43C116.05 2.39 115.88 2.36 115.71 2.33C115.54 2.3 115.37 2.28 115.2 2.26C115.03 2.24 114.86 2.23 114.69 2.22C114.52 2.21 114.35 2.21 114.18 2.21C113.67 2.19 113.17 2.22 112.67 2.32C112.18 2.41 111.7 2.57 111.24 2.78C110.78 3 110.36 3.27 109.96 3.59C109.57 3.9 109.22 4.27 108.92 4.67C107.85 6.14 107.34 7.81 106.51 11.25L103.8 22.39C103.66 22.85 103.54 23.31 103.43 23.78C103.32 24.25 103.23 24.72 103.15 25.2C103.07 25.67 103 26.15 102.95 26.62C102.9 27.1 102.86 27.58 102.84 28.06C102.82 28.59 102.89 29.11 103.04 29.61C103.18 30.11 103.41 30.58 103.72 31.01C104.02 31.44 104.39 31.81 104.81 32.12C105.24 32.42 105.71 32.66 106.21 32.81C106.34 32.86 106.48 32.9 106.62 32.94C106.76 32.98 106.9 33.01 107.04 33.04C107.18 33.06 107.32 33.08 107.46 33.09C107.61 33.11 107.75 33.12 107.89 33.12C108.2 33.12 108.51 33.1 108.81 33.04C109.11 32.99 109.41 32.9 109.69 32.78C109.97 32.66 110.24 32.51 110.5 32.34C110.75 32.16 110.98 31.96 111.19 31.74L111.17 32.7L114.13 32.7L118.01 16.5ZM116.3 32.71L127.22 32.71L128.5 28.65L121.86 28.65L128 2.6L123.44 2.6L116.29 32.7L116.3 32.71ZM142.9 32.71L146.06 2.61L140.62 2.61L128.18 32.7L132.7 32.7L134.93 27.13L139.23 27.13L138.5 32.71L142.9 32.71ZM152.91 32.71C154.41 32.71 156.11 32.71 157.29 31.19C157.43 31 157.56 30.8 157.68 30.59C157.8 30.38 157.91 30.17 158.01 29.95C158.1 29.73 158.19 29.51 158.26 29.29C158.34 29.06 158.4 28.83 158.46 28.59C158.75 27.63 159 26.63 159.23 25.61L160.05 22.18L160.13 21.84C160.18 21.65 160.22 21.47 160.26 21.29C160.3 21.1 160.34 20.92 160.37 20.73C160.4 20.54 160.42 20.36 160.44 20.17C160.46 19.98 160.48 19.79 160.49 19.6C160.48 19.47 160.47 19.34 160.45 19.21C160.43 19.08 160.4 18.94 160.37 18.82C160.34 18.69 160.3 18.56 160.26 18.43C160.22 18.31 160.17 18.18 160.12 18.06C160.05 17.94 159.98 17.82 159.9 17.71C159.81 17.61 159.72 17.51 159.61 17.42C159.51 17.33 159.4 17.25 159.28 17.18C159.16 17.11 159.04 17.05 158.91 17C159.15 16.95 159.4 16.88 159.63 16.78C159.86 16.69 160.08 16.57 160.29 16.42C160.5 16.28 160.69 16.11 160.86 15.93C161.03 15.75 161.19 15.55 161.32 15.33C161.4 15.16 161.48 14.98 161.55 14.8C161.63 14.62 161.69 14.43 161.76 14.25C161.82 14.06 161.88 13.88 161.93 13.69C161.98 13.5 162.03 13.31 162.07 13.12L163.02 9.11L163.07 8.84C163.12 8.64 163.17 8.44 163.21 8.24C163.25 8.04 163.29 7.84 163.32 7.64C163.35 7.43 163.38 7.23 163.4 7.03C163.42 6.82 163.44 6.62 163.45 6.41C163.47 6 163.41 5.59 163.29 5.2C163.16 4.81 162.97 4.45 162.71 4.12C162.46 3.8 162.15 3.52 161.81 3.3C161.46 3.09 161.07 2.93 160.67 2.85C160.47 2.8 160.26 2.75 160.05 2.72C159.85 2.68 159.64 2.66 159.43 2.64C159.22 2.62 159.01 2.61 158.8 2.6C158.59 2.6 158.38 2.6 158.17 2.61L151.78 2.61L144.6 32.71L152.9 32.71L152.91 32.71Z" />
	</g>
</svg>